<svg width="228" height="37" viewBox="0 0 228 37" fill="none" xmlns="http://www.w3.org/2000/svg">
<path d="M23.3304 2.304V25.248C23.3304 28.8 22.3224 31.536 20.3064 33.456C18.3224 35.376 15.6344 36.336 12.2424 36.336C8.69038 36.336 5.84238 35.328 3.69838 33.312C1.55438 31.296 0.482375 28.432 0.482375 24.72H8.64238C8.64238 26.128 8.93038 27.2 9.50638 27.936C10.0824 28.64 10.9144 28.992 12.0024 28.992C12.9944 28.992 13.7624 28.672 14.3064 28.032C14.8504 27.392 15.1224 26.464 15.1224 25.248V2.304H23.3304ZM111.703 13.152C111.703 15.104 111.255 16.896 110.359 18.528C109.463 20.128 108.087 21.424 106.231 22.416C104.375 23.408 102.071 23.904 99.3189 23.904H94.2309V36H86.0229V2.304H99.3189C102.007 2.304 104.279 2.768 106.135 3.696C107.991 4.624 109.383 5.904 110.311 7.536C111.239 9.168 111.703 11.04 111.703 13.152ZM98.6949 17.376C100.263 17.376 101.431 17.008 102.199 16.272C102.967 15.536 103.351 14.496 103.351 13.152C103.351 11.808 102.967 10.768 102.199 10.032C101.431 9.296 100.263 8.928 98.6949 8.928H94.2309V17.376H98.6949ZM114.344 22.56C114.344 19.808 114.856 17.392 115.88 15.312C116.936 13.232 118.36 11.632 120.152 10.512C121.944 9.392 123.944 8.832 126.152 8.832C128.04 8.832 129.688 9.216 131.096 9.984C132.536 10.752 133.64 11.76 134.408 13.008V9.216H142.616V36H134.408V32.208C133.608 33.456 132.488 34.464 131.048 35.232C129.64 36 127.992 36.384 126.104 36.384C123.928 36.384 121.944 35.824 120.152 34.704C118.36 33.552 116.936 31.936 115.88 29.856C114.856 27.744 114.344 25.312 114.344 22.56ZM134.408 22.608C134.408 20.56 133.832 18.944 132.68 17.76C131.56 16.576 130.184 15.984 128.552 15.984C126.92 15.984 125.528 16.576 124.376 17.76C123.256 18.912 122.696 20.512 122.696 22.56C122.696 24.608 123.256 26.24 124.376 27.456C125.528 28.64 126.92 29.232 128.552 29.232C130.184 29.232 131.56 28.64 132.68 27.456C133.832 26.272 134.408 24.656 134.408 22.608ZM163.482 29.04V36H159.306C156.33 36 154.01 35.28 152.346 33.84C150.682 32.368 149.85 29.984 149.85 26.688V16.032H146.586V9.216H149.85V2.688H158.058V9.216H163.434V16.032H158.058V26.784C158.058 27.584 158.25 28.16 158.634 28.512C159.018 28.864 159.658 29.04 160.554 29.04H163.482ZM194.502 9.216V36H186.294V32.352C185.462 33.536 184.326 34.496 182.886 35.232C181.478 35.936 179.91 36.288 178.182 36.288C176.134 36.288 174.326 35.84 172.758 34.944C171.19 34.016 169.974 32.688 169.11 30.96C168.246 29.232 167.814 27.2 167.814 24.864V9.216H175.974V23.76C175.974 25.552 176.438 26.944 177.366 27.936C178.294 28.928 179.542 29.424 181.11 29.424C182.71 29.424 183.974 28.928 184.902 27.936C185.83 26.944 186.294 25.552 186.294 23.76V9.216H194.502ZM216.862 8.928C219.934 8.928 222.398 9.952 224.254 12C226.11 14.016 227.038 16.8 227.038 20.352V36H218.878V21.456C218.878 19.664 218.414 18.272 217.486 17.28C216.558 16.288 215.31 15.792 213.742 15.792C212.174 15.792 210.926 16.288 209.998 17.28C209.07 18.272 208.606 19.664 208.606 21.456V36H200.398V0.48H208.606V12.816C209.438 11.632 210.574 10.688 212.014 9.984C213.454 9.28 215.07 8.928 216.862 8.928Z" fill="#223381"/>
<path d="M54.2004 2.304V8.88H45.2724V36H37.0644V8.88H28.1364V2.304H54.2004Z" fill="#F05529"/>
<path d="M66.5278 2.304V36H58.3198V2.304H66.5278Z" fill="#FA9D1C"/>
<path d="M76.316 36.384C74.876 36.384 73.692 35.968 72.764 35.136C71.868 34.272 71.42 33.216 71.42 31.968C71.42 30.688 71.868 29.616 72.764 28.752C73.692 27.888 74.876 27.456 76.316 27.456C77.724 27.456 78.876 27.888 79.772 28.752C80.7 29.616 81.164 30.688 81.164 31.968C81.164 33.216 80.7 34.272 79.772 35.136C78.876 35.968 77.724 36.384 76.316 36.384Z" fill="black"/>
</svg>
